<svg width="140" height="42" viewBox="0 0 140 42" fill="none" xmlns="http://www.w3.org/2000/svg">
<g clip-path="url(#clip0_94_903)">
<path d="M15.9457 10.7564V19.1238L20.0559 22.2894H33.283V29.3364L26.6165 34.0427H12.7468L0 42V5.19127L5.92214 0H33.283V10.7564H15.9457Z" fill="black"/>
<path d="M22.2266 18.7032C23.6381 18.7032 24.7824 17.5538 24.7824 16.1359C24.7824 14.718 23.6381 13.5686 22.2266 13.5686C20.8151 13.5686 19.6709 14.718 19.6709 16.1359C19.6709 17.5538 20.8151 18.7032 22.2266 18.7032Z" fill="black"/>
</g>
<path d="M56.2748 20.28C54.5414 20.28 53.1681 19.8 52.1548 18.84C51.1414 17.8667 50.6348 16.48 50.6348 14.68V11.32C50.6348 9.52 51.1414 8.14 52.1548 7.18C53.1681 6.20667 54.5414 5.72 56.2748 5.72C57.9948 5.72 59.3214 6.19333 60.2548 7.14C61.2014 8.07333 61.6748 9.36 61.6748 11V11.12H59.0748V10.92C59.0748 10.0933 58.8414 9.41333 58.3748 8.88C57.9214 8.34667 57.2214 8.08 56.2748 8.08C55.3414 8.08 54.6081 8.36667 54.0748 8.94C53.5414 9.51333 53.2748 10.2933 53.2748 11.28V14.72C53.2748 15.6933 53.5414 16.4733 54.0748 17.06C54.6081 17.6333 55.3414 17.92 56.2748 17.92C57.2214 17.92 57.9214 17.6533 58.3748 17.12C58.8414 16.5733 59.0748 15.8933 59.0748 15.08V14.72H61.6748V15C61.6748 16.64 61.2014 17.9333 60.2548 18.88C59.3214 19.8133 57.9948 20.28 56.2748 20.28ZM68.6259 20.28C67.6392 20.28 66.7525 20.08 65.9659 19.68C65.1792 19.28 64.5592 18.7 64.1059 17.94C63.6525 17.18 63.4259 16.2667 63.4259 15.2V14.88C63.4259 13.8133 63.6525 12.9 64.1059 12.14C64.5592 11.38 65.1792 10.8 65.9659 10.4C66.7525 10 67.6392 9.8 68.6259 9.8C69.6125 9.8 70.4992 10 71.2859 10.4C72.0725 10.8 72.6925 11.38 73.1459 12.14C73.5992 12.9 73.8259 13.8133 73.8259 14.88V15.2C73.8259 16.2667 73.5992 17.18 73.1459 17.94C72.6925 18.7 72.0725 19.28 71.2859 19.68C70.4992 20.08 69.6125 20.28 68.6259 20.28ZM68.6259 18.04C69.3992 18.04 70.0392 17.7933 70.5459 17.3C71.0525 16.7933 71.3059 16.0733 71.3059 15.14V14.94C71.3059 14.0067 71.0525 13.2933 70.5459 12.8C70.0525 12.2933 69.4125 12.04 68.6259 12.04C67.8525 12.04 67.2125 12.2933 66.7059 12.8C66.1992 13.2933 65.9459 14.0067 65.9459 14.94V15.14C65.9459 16.0733 66.1992 16.7933 66.7059 17.3C67.2125 17.7933 67.8525 18.04 68.6259 18.04ZM77.939 20L74.779 10.08H77.459L79.759 18.16H80.119L82.419 10.08H85.099L81.939 20H77.939ZM89.6616 20.28C88.955 20.28 88.3216 20.16 87.7616 19.92C87.2016 19.6667 86.755 19.3067 86.4216 18.84C86.1016 18.36 85.9416 17.78 85.9416 17.1C85.9416 16.42 86.1016 15.8533 86.4216 15.4C86.755 14.9333 87.2083 14.5867 87.7816 14.36C88.3683 14.12 89.035 14 89.7816 14H92.5016V13.44C92.5016 12.9733 92.355 12.5933 92.0616 12.3C91.7683 11.9933 91.3016 11.84 90.6616 11.84C90.035 11.84 89.5683 11.9867 89.2616 12.28C88.955 12.56 88.755 12.9267 88.6616 13.38L86.3416 12.6C86.5016 12.0933 86.755 11.6333 87.1016 11.22C87.4616 10.7933 87.935 10.4533 88.5216 10.2C89.1216 9.93333 89.8483 9.8 90.7016 9.8C92.0083 9.8 93.0416 10.1267 93.8016 10.78C94.5616 11.4333 94.9416 12.38 94.9416 13.62V17.32C94.9416 17.72 95.1283 17.92 95.5016 17.92H96.3016V20H94.6216C94.1283 20 93.7216 19.88 93.4016 19.64C93.0816 19.4 92.9216 19.08 92.9216 18.68V18.66H92.5416C92.4883 18.82 92.3683 19.0333 92.1816 19.3C91.995 19.5533 91.7016 19.78 91.3016 19.98C90.9016 20.18 90.355 20.28 89.6616 20.28ZM90.1016 18.24C90.8083 18.24 91.3816 18.0467 91.8216 17.66C92.275 17.26 92.5016 16.7333 92.5016 16.08V15.88H89.9616C89.495 15.88 89.1283 15.98 88.8616 16.18C88.595 16.38 88.4616 16.66 88.4616 17.02C88.4616 17.38 88.6016 17.6733 88.8816 17.9C89.1616 18.1267 89.5683 18.24 90.1016 18.24ZM98.1441 24V10.08H100.624V11.28H100.984C101.211 10.8933 101.564 10.5533 102.044 10.26C102.524 9.95333 103.211 9.8 104.104 9.8C104.904 9.8 105.644 10 106.324 10.4C107.004 10.7867 107.551 11.36 107.964 12.12C108.377 12.88 108.584 13.8 108.584 14.88V15.2C108.584 16.28 108.377 17.2 107.964 17.96C107.551 18.72 107.004 19.3 106.324 19.7C105.644 20.0867 104.904 20.28 104.104 20.28C103.504 20.28 102.997 20.2067 102.584 20.06C102.184 19.9267 101.857 19.7533 101.604 19.54C101.364 19.3133 101.171 19.0867 101.024 18.86H100.664V24H98.1441ZM103.344 18.08C104.131 18.08 104.777 17.8333 105.284 17.34C105.804 16.8333 106.064 16.1 106.064 15.14V14.94C106.064 13.98 105.804 13.2533 105.284 12.76C104.764 12.2533 104.117 12 103.344 12C102.571 12 101.924 12.2533 101.404 12.76C100.884 13.2533 100.624 13.98 100.624 14.94V15.14C100.624 16.1 100.884 16.8333 101.404 17.34C101.924 17.8333 102.571 18.08 103.344 18.08ZM113.978 20.28C113.271 20.28 112.638 20.16 112.078 19.92C111.518 19.6667 111.071 19.3067 110.738 18.84C110.418 18.36 110.258 17.78 110.258 17.1C110.258 16.42 110.418 15.8533 110.738 15.4C111.071 14.9333 111.525 14.5867 112.098 14.36C112.685 14.12 113.351 14 114.098 14H116.818V13.44C116.818 12.9733 116.671 12.5933 116.378 12.3C116.085 11.9933 115.618 11.84 114.978 11.84C114.351 11.84 113.885 11.9867 113.578 12.28C113.271 12.56 113.071 12.9267 112.978 13.38L110.658 12.6C110.818 12.0933 111.071 11.6333 111.418 11.22C111.778 10.7933 112.251 10.4533 112.838 10.2C113.438 9.93333 114.165 9.8 115.018 9.8C116.325 9.8 117.358 10.1267 118.118 10.78C118.878 11.4333 119.258 12.38 119.258 13.62V17.32C119.258 17.72 119.445 17.92 119.818 17.92H120.618V20H118.938C118.445 20 118.038 19.88 117.718 19.64C117.398 19.4 117.238 19.08 117.238 18.68V18.66H116.858C116.805 18.82 116.685 19.0333 116.498 19.3C116.311 19.5533 116.018 19.78 115.618 19.98C115.218 20.18 114.671 20.28 113.978 20.28ZM114.418 18.24C115.125 18.24 115.698 18.0467 116.138 17.66C116.591 17.26 116.818 16.7333 116.818 16.08V15.88H114.278C113.811 15.88 113.445 15.98 113.178 16.18C112.911 16.38 112.778 16.66 112.778 17.02C112.778 17.38 112.918 17.6733 113.198 17.9C113.478 18.1267 113.885 18.24 114.418 18.24ZM126.265 20.28C125.479 20.28 124.739 20.0867 124.045 19.7C123.365 19.3 122.819 18.72 122.405 17.96C121.992 17.2 121.785 16.28 121.785 15.2V14.88C121.785 13.8 121.992 12.88 122.405 12.12C122.819 11.36 123.365 10.7867 124.045 10.4C124.725 10 125.465 9.8 126.265 9.8C126.865 9.8 127.365 9.87333 127.765 10.02C128.179 10.1533 128.512 10.3267 128.765 10.54C129.019 10.7533 129.212 10.98 129.345 11.22H129.705V6H132.225V20H129.745V18.8H129.385C129.159 19.1733 128.805 19.5133 128.325 19.82C127.859 20.1267 127.172 20.28 126.265 20.28ZM127.025 18.08C127.799 18.08 128.445 17.8333 128.965 17.34C129.485 16.8333 129.745 16.1 129.745 15.14V14.94C129.745 13.98 129.485 13.2533 128.965 12.76C128.459 12.2533 127.812 12 127.025 12C126.252 12 125.605 12.2533 125.085 12.76C124.565 13.2533 124.305 13.98 124.305 14.94V15.14C124.305 16.1 124.565 16.8333 125.085 17.34C125.605 17.8333 126.252 18.08 127.025 18.08ZM135.019 20V10.08H137.539V20H135.019ZM136.279 8.92C135.826 8.92 135.439 8.77333 135.119 8.48C134.812 8.18667 134.659 7.8 134.659 7.32C134.659 6.84 134.812 6.45333 135.119 6.16C135.439 5.86667 135.826 5.72 136.279 5.72C136.746 5.72 137.132 5.86667 137.439 6.16C137.746 6.45333 137.899 6.84 137.899 7.32C137.899 7.8 137.746 8.18667 137.439 8.48C137.132 8.77333 136.746 8.92 136.279 8.92Z" fill="#0E0E0E"/>
<defs>
<clipPath id="clip0_94_903">
<rect width="33.283" height="42" fill="white"/>
</clipPath>
</defs>
</svg>
